<svg width="61" height="61" viewBox="0 0 61 61" fill="none" xmlns="http://www.w3.org/2000/svg">
<path d="M0.5 30.6191C0.5 14.0506 13.9315 0.619141 30.5 0.619141C47.0685 0.619141 60.5 14.0506 60.5 30.6191C60.5 47.1877 47.0685 60.6191 30.5 60.6191C13.9315 60.6191 0.5 47.1877 0.5 30.6191Z" fill="#0A0D12"/>
<path d="M30.5 11.8691C25.5875 11.8691 21.5938 15.8629 21.5938 20.7754C21.5938 25.5941 25.3625 29.4941 30.275 29.6629C30.425 29.6441 30.575 29.6441 30.6875 29.6629C30.725 29.6629 30.7437 29.6629 30.7812 29.6629C30.8 29.6629 30.8 29.6629 30.8188 29.6629C35.6187 29.4941 39.3875 25.5941 39.4062 20.7754C39.4062 15.8629 35.4125 11.8691 30.5 11.8691Z" fill="#FDFDFD"/>
<path d="M40.0248 34.6498C34.7936 31.1623 26.2623 31.1623 20.9936 34.6498C18.6123 36.2436 17.2998 38.3998 17.2998 40.7061C17.2998 43.0123 18.6123 45.1498 20.9748 46.7248C23.5998 48.4873 27.0498 49.3686 30.4998 49.3686C33.9498 49.3686 37.3998 48.4873 40.0248 46.7248C42.3873 45.1311 43.6998 42.9936 43.6998 40.6686C43.6811 38.3623 42.3873 36.2248 40.0248 34.6498Z" fill="#FDFDFD"/>
</svg>
