<svg xmlns="http://www.w3.org/2000/svg" viewBox="0 0 122.8 122.8">
  <path fill="#E01E5A" d="M30.7 76.8a15.4 15.4 0 1 1-15.4-15.4h15.4v15.4zM38.4 76.8a15.4 15.4 0 0 1 30.8 0v38.4a7.7 7.7 0 0 1-15.4 0V76.8H38.4z"/>
  <path fill="#36C5F0" d="M46.1 30.7a15.4 15.4 0 1 1 15.4-15.4v15.4H46.1zM46.1 38.4a15.4 15.4 0 0 1 0 30.8H7.7a7.7 7.7 0 0 1 0-15.4h38.4V38.4z"/>
  <path fill="#2EB67D" d="M92.1 46.1a15.4 15.4 0 1 1 15.4 15.4H92.1V46.1zM84.4 46.1a15.4 15.4 0 0 1-30.8 0V7.7a7.7 7.7 0 0 1 15.4 0v38.4h15.4z"/>
  <path fill="#ECB22E" d="M76.8 92.1a15.4 15.4 0 1 1-15.4 15.4V92.1h15.4zM76.8 84.4a15.4 15.4 0 0 1 0-30.8h38.4a7.7 7.7 0 0 1 0 15.4H76.8v15.4z"/>
</svg>
