<svg width="76" height="33" viewBox="0 0 76 33" fill="none" xmlns="http://www.w3.org/2000/svg">
<path d="M0 24.2161L7.80143 13.9935H0.924182C0.8659 13.6991 0.840923 13.3765 0.840923 13.019C0.840923 12.6754 0.8659 12.3599 0.924182 12.0724H12.056L12.1975 12.3879L4.33783 22.6315H11.7063C11.7646 22.954 11.7896 23.2906 11.7896 23.6271C11.7896 23.9496 11.7646 24.2581 11.7063 24.5526H0.141541L0 24.2161Z" fill="#FF4A00"/>
<path d="M22.5135 16.3284C22.5135 15.3679 22.2221 14.7088 21.6476 14.3302C21.0731 13.9586 20.2322 13.7693 19.1331 13.7693C18.4587 13.7693 17.8259 13.8114 17.2431 13.9025C16.652 13.9937 16.0858 14.1059 15.5197 14.2531C15.1533 13.7202 14.9701 13.0752 14.9701 12.332C15.6279 12.1567 16.3439 12.0165 17.1349 11.9183C17.9259 11.8202 18.6835 11.7711 19.4162 11.7711C21.3395 11.7711 22.8049 12.1427 23.8123 12.8789C24.8114 13.6151 25.3193 14.8 25.3193 16.4196V24.2302C24.6449 24.3564 23.829 24.4967 22.8632 24.6299C21.8973 24.7701 20.9149 24.8332 19.9158 24.8332C18.9749 24.8332 18.1174 24.7631 17.3597 24.6159C16.602 24.4686 15.9526 24.2372 15.4197 23.9077C14.8869 23.5852 14.4789 23.1715 14.1875 22.6667C13.8961 22.1619 13.7546 21.5519 13.7546 20.8437C13.7546 20.1496 13.9211 19.5326 14.2624 19.0068C14.5955 18.4809 15.0534 18.0392 15.6362 17.6957C16.2107 17.3451 16.8768 17.0857 17.6345 16.9174C18.3838 16.7491 19.1748 16.658 20.0074 16.658C20.6235 16.658 21.1314 16.672 21.5227 16.693C21.914 16.7141 22.247 16.7491 22.5218 16.7772V16.3284H22.5135ZM22.5135 18.6913C22.2221 18.6562 21.8557 18.6282 21.4144 18.5931C20.9732 18.5581 20.5985 18.544 20.2904 18.544C19.0915 18.544 18.184 18.7333 17.5595 19.1049C16.9351 19.4765 16.6187 20.0445 16.6187 20.8087C16.6187 21.2925 16.7269 21.6781 16.9351 21.9515C17.1432 22.225 17.4097 22.4353 17.726 22.5826C18.0424 22.7298 18.3921 22.8209 18.7834 22.849C19.1664 22.884 19.5328 22.8981 19.8825 22.8981C20.3237 22.8981 20.7817 22.877 21.2562 22.835C21.7308 22.7929 22.1471 22.7368 22.5135 22.6527V18.6913Z" fill="#FF4A00"/>
<path d="M28.4415 12.073C28.633 12.0379 28.8328 12.0169 29.0326 12.0028C29.2325 11.9888 29.4406 11.9818 29.6571 11.9818C29.8486 11.9818 30.0484 11.9888 30.2649 12.0028C30.473 12.0169 30.6812 12.0449 30.8727 12.073C30.8893 12.108 30.9143 12.2062 30.9476 12.3744C30.9726 12.5427 31.0059 12.725 31.0309 12.9213C31.0558 13.1176 31.0892 13.2999 31.1141 13.4822C31.1391 13.6645 31.1558 13.7767 31.1558 13.8258C31.3473 13.5664 31.5804 13.314 31.8468 13.0686C32.1132 12.8232 32.438 12.6058 32.8126 12.4095C33.1873 12.2132 33.6119 12.0589 34.0865 11.9468C34.5611 11.8346 35.0856 11.7785 35.6601 11.7785C36.526 11.7785 37.3336 11.8977 38.0746 12.1431C38.8156 12.3885 39.4484 12.7601 39.9813 13.2719C40.5141 13.7837 40.9221 14.4358 41.2218 15.221C41.5216 16.0063 41.6714 16.9388 41.6714 18.0116C41.6714 20.157 40.9804 21.8327 39.6066 23.0387C38.2245 24.2446 36.2762 24.8546 33.7535 24.8546C33.3288 24.8546 32.8959 24.8336 32.4546 24.7845C32.0133 24.7354 31.622 24.6723 31.2973 24.5882V30.3094C31.0642 30.3445 30.8227 30.3655 30.5563 30.3796C30.2982 30.3936 30.0567 30.4006 29.8486 30.4006C29.6404 30.4006 29.399 30.3936 29.1409 30.3796C28.8828 30.3655 28.6413 30.3375 28.4332 30.3094V12.073H28.4415ZM31.3056 22.5128C31.672 22.625 32.0466 22.7092 32.4296 22.7582C32.8126 22.8073 33.3122 22.8284 33.9366 22.8284C34.6277 22.8284 35.2688 22.7372 35.8433 22.5479C36.4178 22.3586 36.9173 22.0711 37.3336 21.6855C37.7499 21.2929 38.0746 20.8021 38.3161 20.2131C38.5575 19.6242 38.6741 18.916 38.6741 18.1097C38.6741 16.8126 38.391 15.782 37.8249 15.0177C37.2587 14.2535 36.3262 13.8749 35.0357 13.8749C34.5527 13.8749 34.0948 13.945 33.6452 14.0922C33.2039 14.2395 32.8043 14.4568 32.4629 14.7513C32.1132 15.0458 31.8385 15.4104 31.622 15.8591C31.4055 16.3078 31.3056 16.8337 31.3056 17.4507V22.5128Z" fill="#FF4A00"/>
<path d="M45.2349 13.9655H43.3533C43.3117 13.8323 43.2867 13.685 43.27 13.5168C43.2534 13.3485 43.245 13.1802 43.245 13.019C43.245 12.8577 43.2534 12.6894 43.27 12.5212C43.2867 12.3529 43.32 12.1986 43.3533 12.0724H48.0408V24.5596C47.8326 24.5947 47.5912 24.6157 47.3331 24.6297C47.075 24.6438 46.8335 24.6508 46.6254 24.6508C46.4339 24.6508 46.2091 24.6438 45.9427 24.6297C45.6845 24.6157 45.4431 24.5877 45.2349 24.5596V13.9655Z" fill="#FF4A00"/>
<path d="M54.1937 18.9088C54.2353 20.269 54.6516 21.2716 55.4509 21.9026C56.2502 22.5337 57.4325 22.8492 58.9894 22.8492C60.3549 22.8492 61.6621 22.6458 62.8943 22.2392C63.0525 22.4846 63.1774 22.7791 63.269 23.1296C63.3689 23.4802 63.4188 23.8237 63.4438 24.1673C62.8111 24.3917 62.1117 24.5669 61.3457 24.6791C60.588 24.7913 59.7388 24.8474 58.8146 24.8474C57.4658 24.8474 56.3085 24.6861 55.3427 24.3706C54.3769 24.0551 53.5859 23.6064 52.9614 23.0315C52.337 22.4565 51.8791 21.7764 51.5877 20.9842C51.2962 20.1989 51.1547 19.3365 51.1547 18.39C51.1547 17.4645 51.2962 16.6021 51.571 15.7958C51.8458 14.9895 52.2787 14.2953 52.8532 13.6994C53.4277 13.1104 54.1604 12.6336 55.0346 12.2901C55.9088 11.9395 56.9496 11.7642 58.1402 11.7642C59.1643 11.7642 60.0552 11.9115 60.8295 12.206C61.6038 12.5004 62.2449 12.9001 62.7694 13.4119C63.2856 13.9237 63.6853 14.5337 63.9517 15.2349C64.2181 15.943 64.3597 16.7072 64.3597 17.5346C64.3597 17.7589 64.3514 18.0043 64.3264 18.2497C64.3097 18.5021 64.2847 18.7195 64.2681 18.8948H54.1937V18.9088ZM61.5372 17.1069C61.5372 16.6511 61.4622 16.2164 61.3207 15.8028C61.1792 15.3891 60.9627 15.0315 60.6879 14.723C60.4049 14.4145 60.0552 14.1691 59.6222 13.9798C59.1893 13.7905 58.673 13.6994 58.0736 13.6994C56.8996 13.6994 56.0004 14.0009 55.3676 14.5968C54.7432 15.1998 54.3602 16.0341 54.227 17.1069H61.5372Z" fill="#FF4A00"/>
<path d="M67.5236 12.0724C67.7318 12.0374 67.9399 12.0163 68.1314 12.0023C68.3229 11.9883 68.5227 11.9813 68.7392 11.9813C68.9473 11.9813 69.1638 11.9883 69.372 12.0023C69.5801 12.0163 69.7799 12.0444 69.9465 12.0724C70.0047 12.3178 70.063 12.6333 70.1213 13.033C70.1796 13.4326 70.2046 13.7692 70.2046 14.0426C70.6125 13.4887 71.1454 13.0119 71.8115 12.6053C72.4776 12.1986 73.3268 11.9953 74.3675 11.9953C74.5257 11.9953 74.6839 12.0023 74.8421 12.0093C75.0086 12.0163 75.1419 12.0304 75.2584 12.0444C75.3001 12.1916 75.325 12.3459 75.3417 12.5071C75.3583 12.6684 75.3667 12.8367 75.3667 13.019C75.3667 13.2153 75.35 13.4186 75.325 13.6289C75.3001 13.8393 75.2584 14.0426 75.2251 14.2389C75.0669 14.2039 74.9087 14.1899 74.7505 14.1899C74.584 14.1899 74.4591 14.1899 74.3592 14.1899C73.843 14.1899 73.3435 14.253 72.8689 14.3721C72.3943 14.4913 71.9697 14.7087 71.595 15.0172C71.2203 15.3257 70.9206 15.7464 70.6958 16.2862C70.471 16.8191 70.3628 17.5132 70.3628 18.3546V24.5596C70.1546 24.5947 69.9132 24.6157 69.655 24.6297C69.3969 24.6438 69.1555 24.6508 68.9473 24.6508C68.7392 24.6508 68.4977 24.6438 68.2396 24.6297C67.9815 24.6157 67.7318 24.5877 67.4986 24.5596V12.0724H67.5236Z" fill="#FF4A00"/>
<path d="M50.7633 4.72482H47.9657L49.9473 3.05612C49.7891 2.87382 49.6143 2.69854 49.4311 2.53728C49.2396 2.37602 49.0398 2.22878 48.815 2.10258L46.8334 3.77128V1.41547C46.5753 1.38041 46.3089 1.35938 46.0341 1.35938H46.0258C45.751 1.35938 45.4846 1.38041 45.2265 1.41547V3.77128L43.2449 2.10258C43.0285 2.23579 42.8203 2.38303 42.6288 2.53728C42.4373 2.69854 42.2708 2.86681 42.1126 3.05612L44.1025 4.72482H41.305C41.305 4.72482 41.2384 5.16653 41.2384 5.39791C41.2384 5.62928 41.2633 5.85364 41.305 6.07099H44.1025L42.1209 7.73969C42.429 8.10428 42.812 8.4268 43.2533 8.69324L45.2348 7.02454V9.38035C45.4929 9.4154 45.7594 9.43644 46.0341 9.43644H46.0425C46.3172 9.43644 46.5836 9.4154 46.8417 9.38035V7.02454L48.8233 8.69324C49.0398 8.56002 49.2479 8.41278 49.4394 8.25853C49.6309 8.09727 49.8058 7.929 49.9557 7.73969L47.9741 6.07099H50.7716C50.8132 5.85364 50.8382 5.62928 50.8382 5.39791V5.3909C50.8299 5.16653 50.8132 4.94217 50.7633 4.72482ZM47.2331 5.40492C47.2331 5.70641 47.1665 5.99387 47.0499 6.2603C46.7335 6.35846 46.3921 6.41455 46.0341 6.41455C45.6761 6.41455 45.3347 6.35846 45.0184 6.2603C44.9018 5.99387 44.8352 5.70641 44.8352 5.40492V5.39791C44.8352 5.09642 44.9018 4.80895 45.0184 4.54252C45.3347 4.44436 45.6761 4.38827 46.0341 4.38827C46.3921 4.38827 46.7335 4.44436 47.0499 4.54252C47.1665 4.80895 47.2331 5.09642 47.2331 5.40492Z" fill="#FF4A00"/>
</svg>
