<svg width="76" height="33" viewBox="0 0 76 33" fill="none" xmlns="http://www.w3.org/2000/svg">
<path fill-rule="evenodd" clip-rule="evenodd" d="M13.4146 8.61914H1.80921C1.32979 8.61914 0.869969 8.80776 0.530746 9.14357C0.191524 9.47939 0.000639858 9.93493 2.12466e-05 10.4101V21.8955C-0.00113086 22.1312 0.0445831 22.3647 0.13455 22.5829C0.224517 22.801 0.356972 22.9994 0.524344 23.1667C0.691716 23.3341 0.890723 23.4671 1.10999 23.5582C1.32925 23.6493 1.56448 23.6966 1.80221 23.6975H13.4161C13.6537 23.6972 13.889 23.6506 14.1084 23.5602C14.3278 23.4698 14.5271 23.3374 14.695 23.1706C14.8628 23.0039 14.9958 22.8059 15.0864 22.5882C15.1771 22.3705 15.2236 22.1371 15.2232 21.9016V10.4101C15.2226 9.93503 15.0318 9.47958 14.6927 9.14378C14.3536 8.80798 13.8939 8.61929 13.4146 8.61914V8.61914ZM6.56564 19.4797C6.56495 19.6387 6.50059 19.7909 6.38671 19.9029C6.27284 20.0148 6.11878 20.0774 5.95839 20.0767H3.41969C3.26043 20.076 3.10796 20.0127 2.99559 19.9009C2.88322 19.789 2.8201 19.6376 2.82003 19.4797V11.9984C2.81995 11.8405 2.88302 11.689 2.99542 11.5771C3.10782 11.4652 3.26038 11.402 3.41969 11.4014H5.95606C6.11561 11.402 6.26844 11.4651 6.38126 11.5769C6.49408 11.6888 6.55773 11.8403 6.55835 11.9984L6.56564 19.4797ZM12.4172 16.0447C12.4172 16.203 12.3538 16.3549 12.2408 16.4669C12.1279 16.5789 11.9747 16.6419 11.8149 16.6419H9.27155C9.11195 16.6413 8.95907 16.5782 8.84625 16.4663C8.73342 16.3544 8.6698 16.2029 8.66927 16.0447V11.9984C8.66988 11.8403 8.73353 11.6888 8.84635 11.5769C8.95917 11.4651 9.11201 11.402 9.27155 11.4014H11.8076C11.967 11.4019 12.1196 11.4651 12.2321 11.577C12.3446 11.6889 12.4077 11.8404 12.4076 11.9984L12.4172 16.0447Z" fill="url(#paint0_linear_24535_609)"/>
<path d="M31.5413 9.72363V12.6395H28.0566V23.6974H24.6962V12.6395H21.2114V9.72363H31.5413Z" fill="#293856"/>
<path d="M35.8175 23.6982H32.7109V12.8209H35.8175V14.9034C36.4078 13.4361 37.3515 12.5634 39.0317 12.6699V15.8921C36.8368 15.7229 35.8175 16.2545 35.8175 17.9975V23.6982Z" fill="#293856"/>
<path d="M56.0042 23.7823C53.9679 23.7823 52.6875 22.8153 52.6875 20.5285V8.61914H55.8162V20.1022C55.8162 20.762 56.2539 20.9965 56.7917 20.9965C56.9465 20.9995 57.1013 20.9921 57.2551 20.9746V23.6553C56.846 23.7545 56.4251 23.7973 56.0042 23.7823Z" fill="#293856"/>
<path d="M62.5309 23.7823C60.4947 23.7823 59.2119 22.8153 59.2119 20.5285V8.61914H62.3407V20.1022C62.3407 20.762 62.7819 20.9965 63.3281 20.9965C63.4821 20.9998 63.6362 20.9924 63.7892 20.9746V23.6553C63.3777 23.7554 62.9542 23.7981 62.5309 23.7823V23.7823Z" fill="#293856"/>
<path d="M65.2881 18.2545C65.2881 14.8946 67.2391 12.5957 70.5989 12.5957C73.9588 12.5957 75.8692 14.8871 75.8692 18.2545C75.8692 21.6219 73.9378 23.9526 70.5995 23.9526C67.2613 23.9526 65.2881 21.5924 65.2881 18.2545ZM68.334 18.2545C68.334 19.8908 69.0267 21.1889 70.5995 21.1889C72.1724 21.1889 72.826 19.8908 72.826 18.2545C72.826 16.6182 72.1548 15.3537 70.5995 15.3537C69.0442 15.3537 68.334 16.6156 68.334 18.2545Z" fill="#293856"/>
<path d="M43.2258 19.2383C44.0957 19.3329 44.9699 19.3837 45.845 19.3904C48.225 19.3904 50.2344 18.7572 50.2344 16.4731C50.2344 14.2563 48.169 12.5908 45.684 12.5908C42.3384 12.5908 40.1948 14.9962 40.1948 18.3561C40.1948 21.8441 42.0431 23.9154 46.2206 23.9154C47.4598 23.9254 48.6902 23.7075 49.8492 23.2727V20.6668C48.7762 21.0076 47.569 21.346 46.3303 21.346C44.667 21.3463 43.5077 20.8045 43.2258 19.2383ZM45.6207 14.9647C46.501 14.9647 47.2081 15.5567 47.2081 16.3666C47.2081 17.4079 46.0992 17.7348 44.8208 17.7348C44.277 17.7322 43.734 17.6893 43.1966 17.6066C43.2372 17.0987 43.3842 16.6048 43.6282 16.1564C43.8241 15.8011 44.112 15.504 44.4622 15.2956C44.8124 15.0871 45.2122 14.9749 45.6207 14.9704V14.9647Z" fill="#293856"/>
<defs>
<linearGradient id="paint0_linear_24535_609" x1="7.61089" y1="23.6975" x2="7.61089" y2="8.61914" gradientUnits="userSpaceOnUse">
<stop stop-color="#0052CC"/>
<stop offset="1" stop-color="#2684FF"/>
</linearGradient>
</defs>
</svg>
