<svg width="30" height="30" viewBox="0 0 30 30" fill="none" xmlns="http://www.w3.org/2000/svg">
<path d="M14.853 29.3095C6.90534 29.3095 0.436523 22.8407 0.436523 14.8931C0.436523 6.94538 6.90534 0.476562 14.853 0.476562C22.8007 0.476562 29.2695 6.94538 29.2695 14.8931C29.2695 22.8407 22.8007 29.3095 14.853 29.3095ZM14.853 2.8018C8.18422 2.8018 2.76176 8.22426 2.76176 14.8931C2.76176 21.5618 8.18422 26.9843 14.853 26.9843C21.5218 26.9843 26.9443 21.5618 26.9443 14.8931C26.9443 8.22426 21.5218 2.8018 14.853 2.8018Z" fill="#FDFDFD"/>
<path d="M10.6684 13.4737C7.94325 13.4737 4.99485 13.0692 1.85112 12.2507C1.22796 12.0879 0.855921 11.4554 1.01869 10.8323C1.18145 10.2091 1.81392 9.83707 2.43708 9.99984C11.9613 12.4739 19.416 10.9067 23.9921 5.47492C24.406 4.98662 25.1407 4.92151 25.629 5.33541C26.122 5.7493 26.1824 6.48407 25.7686 6.97238C22.1365 11.2834 17.0024 13.4737 10.6684 13.4737Z" fill="#FDFDFD"/>
<path d="M4.85571 24.7573C4.58598 24.7573 4.32091 24.6643 4.10233 24.4783C3.61403 24.0597 3.55823 23.325 3.97212 22.8367C10.7711 14.889 19.5698 13.0009 28.1128 17.6653C28.6755 17.9723 28.8847 18.6791 28.5778 19.2418C28.2709 19.8045 27.564 20.0138 27.0013 19.7069C16.7423 14.1124 9.27832 20.2138 5.7393 24.3527C5.51143 24.6178 5.18589 24.7573 4.85571 24.7573Z" fill="#FDFDFD"/>
<path d="M18.6611 28.7508C18.6193 28.7508 18.5774 28.7508 18.5356 28.7461C17.8984 28.6764 17.438 28.1044 17.5078 27.4626C18.4146 19.1476 16.2754 10.7627 11.1552 2.53138C10.8158 1.98728 10.9832 1.2711 11.5273 0.931616C12.0714 0.59213 12.7876 0.759548 13.1271 1.30365C18.5309 9.9861 20.7817 18.8732 19.8191 27.7184C19.7493 28.3137 19.2471 28.7508 18.6611 28.7508Z" fill="#FDFDFD"/>
</svg>
