<svg width="30" height="28" viewBox="0 0 30 28" fill="none" xmlns="http://www.w3.org/2000/svg">
<path d="M9.6665 26H20.3332M14.9998 20.6667V26M8.0665 20.6667H21.9332C24.1734 20.6667 25.2935 20.6667 26.1491 20.2307C26.9018 19.8472 27.5137 19.2353 27.8972 18.4826C28.3332 17.627 28.3332 16.5069 28.3332 14.2667V8.4C28.3332 6.15979 28.3332 5.03969 27.8972 4.18404C27.5137 3.43139 26.9018 2.81947 26.1491 2.43597C25.2935 2 24.1734 2 21.9332 2H8.0665C5.82629 2 4.70619 2 3.85054 2.43597C3.09789 2.81947 2.48597 3.43139 2.10248 4.18404C1.6665 5.03969 1.6665 6.15979 1.6665 8.4V14.2667C1.6665 16.5069 1.6665 17.627 2.10248 18.4826C2.48597 19.2353 3.09789 19.8472 3.85054 20.2307C4.70619 20.6667 5.82629 20.6667 8.0665 20.6667Z" stroke="#91FF02" stroke-width="3" stroke-linecap="round" stroke-linejoin="round"/>
</svg>
